<svg width="32" height="32" viewBox="0 0 32 32" xmlns="http://www.w3.org/2000/svg" style="image-rendering: pixelated;">
  <!-- 16-bit pixelated style weather icon -->
  <defs>
    <style>
      .pixel { shape-rendering: crispEdges; }
    </style>
  </defs>
  
  <!-- Background -->
  <rect width="32" height="32" fill="#0a0a1a"/>
  
  <!-- Sun rays (16-bit style) -->
  <rect class="pixel" x="4" y="4" width="2" height="2" fill="#ffff00"/>
  <rect class="pixel" x="26" y="4" width="2" height="2" fill="#ffff00"/>
  <rect class="pixel" x="4" y="26" width="2" height="2" fill="#ffff00"/>
  <rect class="pixel" x="26" y="26" width="2" height="2" fill="#ffff00"/>
  <rect class="pixel" x="2" y="15" width="2" height="2" fill="#ffff00"/>
  <rect class="pixel" x="28" y="15" width="2" height="2" fill="#ffff00"/>
  <rect class="pixel" x="15" y="2" width="2" height="2" fill="#ffff00"/>
  <rect class="pixel" x="15" y="28" width="2" height="2" fill="#ffff00"/>
  
  <!-- Sun center -->
  <rect class="pixel" x="12" y="8" width="8" height="2" fill="#ffff00"/>
  <rect class="pixel" x="10" y="10" width="12" height="2" fill="#ffff00"/>
  <rect class="pixel" x="10" y="12" width="12" height="2" fill="#ffff00"/>
  <rect class="pixel" x="12" y="14" width="8" height="2" fill="#ffff00"/>
  
  <!-- Cloud (16-bit chunky style) -->
  <rect class="pixel" x="8" y="18" width="16" height="2" fill="#00d4ff"/>
  <rect class="pixel" x="6" y="20" width="20" height="2" fill="#00d4ff"/>
  <rect class="pixel" x="6" y="22" width="20" height="2" fill="#00d4ff"/>
  <rect class="pixel" x="8" y="24" width="16" height="2" fill="#00d4ff"/>
  
  <!-- Cloud highlights for 3D effect -->
  <rect class="pixel" x="8" y="18" width="14" height="1" fill="#4df0ff"/>
  <rect class="pixel" x="6" y="20" width="18" height="1" fill="#4df0ff"/>
  
  <!-- Retro border pixels -->
  <rect class="pixel" x="0" y="0" width="2" height="2" fill="#ff1493"/>
  <rect class="pixel" x="30" y="0" width="2" height="2" fill="#ff1493"/>
  <rect class="pixel" x="0" y="30" width="2" height="2" fill="#ff1493"/>
  <rect class="pixel" x="30" y="30" width="2" height="2" fill="#ff1493"/>
</svg> 